<mxfile host="app.diagrams.net" modified="2022-11-17T06:41:57.251Z" agent="5.0 (Macintosh; Intel Mac OS X 10_15_7) AppleWebKit/537.36 (KHTML, like Gecko) Chrome/107.0.0.0 Safari/537.36" etag="kBK4lpxhxcgmTmPWzFJD" version="20.5.3" type="github">
  <diagram id="GIN4OdDw0ZfK6tlGr7N-" name="第 1 页">
    <mxGraphModel dx="1495" dy="638" grid="0" gridSize="10" guides="1" tooltips="1" connect="1" arrows="1" fold="1" page="1" pageScale="1" pageWidth="827" pageHeight="1169" math="0" shadow="0">
      <root>
        <mxCell id="0" />
        <mxCell id="1" parent="0" />
        <mxCell id="UkfveuOMZjRMpDvrLKGp-8" style="edgeStyle=orthogonalEdgeStyle;rounded=0;orthogonalLoop=1;jettySize=auto;html=1;exitX=0.5;exitY=1;exitDx=0;exitDy=0;entryX=0.5;entryY=0;entryDx=0;entryDy=0;curved=1;" parent="1" source="UkfveuOMZjRMpDvrLKGp-1" target="UkfveuOMZjRMpDvrLKGp-2" edge="1">
          <mxGeometry relative="1" as="geometry" />
        </mxCell>
        <mxCell id="UkfveuOMZjRMpDvrLKGp-9" value="发品/修改商品" style="edgeLabel;html=1;align=center;verticalAlign=middle;resizable=0;points=[];" parent="UkfveuOMZjRMpDvrLKGp-8" vertex="1" connectable="0">
          <mxGeometry x="-0.2571" y="-5" relative="1" as="geometry">
            <mxPoint as="offset" />
          </mxGeometry>
        </mxCell>
        <mxCell id="UkfveuOMZjRMpDvrLKGp-1" value="VC/SHOP" style="rounded=0;whiteSpace=wrap;html=1;" parent="1" vertex="1">
          <mxGeometry x="384" y="144" width="120" height="60" as="geometry" />
        </mxCell>
        <mxCell id="UkfveuOMZjRMpDvrLKGp-24" style="edgeStyle=orthogonalEdgeStyle;curved=1;rounded=0;orthogonalLoop=1;jettySize=auto;html=1;exitX=0.5;exitY=1;exitDx=0;exitDy=0;entryX=0.5;entryY=0;entryDx=0;entryDy=0;entryPerimeter=0;" parent="1" source="UkfveuOMZjRMpDvrLKGp-2" target="UkfveuOMZjRMpDvrLKGp-23" edge="1">
          <mxGeometry relative="1" as="geometry" />
        </mxCell>
        <mxCell id="UkfveuOMZjRMpDvrLKGp-2" value="" style="rounded=1;whiteSpace=wrap;html=1;shadow=0;dashed=1;" parent="1" vertex="1">
          <mxGeometry x="114" y="314" width="300" height="150" as="geometry" />
        </mxCell>
        <mxCell id="UkfveuOMZjRMpDvrLKGp-3" value="强制绑标服务" style="rounded=1;whiteSpace=wrap;html=1;fillColor=#66B2FF;" parent="1" vertex="1">
          <mxGeometry x="134" y="339" width="120" height="45" as="geometry" />
        </mxCell>
        <mxCell id="UkfveuOMZjRMpDvrLKGp-4" value="重复校验服务" style="rounded=1;whiteSpace=wrap;html=1;fillColor=#66B2FF;" parent="1" vertex="1">
          <mxGeometry x="274" y="404" width="120" height="45" as="geometry" />
        </mxCell>
        <mxCell id="UkfveuOMZjRMpDvrLKGp-5" value="大网品牌映射服务" style="rounded=1;whiteSpace=wrap;html=1;fillColor=#E6E6E6;" parent="1" vertex="1">
          <mxGeometry x="134" y="404" width="120" height="45" as="geometry" />
        </mxCell>
        <mxCell id="UkfveuOMZjRMpDvrLKGp-6" value="大网类目映射服务" style="rounded=1;whiteSpace=wrap;html=1;fillColor=#E6E6E6;" parent="1" vertex="1">
          <mxGeometry x="274" y="339" width="120" height="45" as="geometry" />
        </mxCell>
        <mxCell id="UkfveuOMZjRMpDvrLKGp-25" style="edgeStyle=orthogonalEdgeStyle;curved=1;rounded=0;orthogonalLoop=1;jettySize=auto;html=1;entryX=0.5;entryY=0;entryDx=0;entryDy=0;entryPerimeter=0;" parent="1" source="UkfveuOMZjRMpDvrLKGp-10" target="UkfveuOMZjRMpDvrLKGp-23" edge="1">
          <mxGeometry relative="1" as="geometry" />
        </mxCell>
        <mxCell id="UkfveuOMZjRMpDvrLKGp-10" value="" style="rounded=1;whiteSpace=wrap;html=1;shadow=0;dashed=1;" parent="1" vertex="1">
          <mxGeometry x="494" y="314" width="300" height="150" as="geometry" />
        </mxCell>
        <mxCell id="UkfveuOMZjRMpDvrLKGp-12" value="标品申请" style="text;html=1;align=center;verticalAlign=middle;resizable=0;points=[];autosize=1;strokeColor=none;fillColor=none;shadow=1;dashed=1;" parent="1" vertex="1">
          <mxGeometry x="114" y="309" width="70" height="30" as="geometry" />
        </mxCell>
        <mxCell id="UkfveuOMZjRMpDvrLKGp-16" value="" style="endArrow=classic;html=1;rounded=0;curved=1;entryX=0.5;entryY=0;entryDx=0;entryDy=0;edgeStyle=orthogonalEdgeStyle;" parent="1" target="UkfveuOMZjRMpDvrLKGp-10" edge="1">
          <mxGeometry width="50" height="50" relative="1" as="geometry">
            <mxPoint x="444" y="204" as="sourcePoint" />
            <mxPoint x="584" y="184" as="targetPoint" />
            <Array as="points">
              <mxPoint x="444" y="254" />
              <mxPoint x="644" y="254" />
            </Array>
          </mxGeometry>
        </mxCell>
        <mxCell id="UkfveuOMZjRMpDvrLKGp-17" value="申请列表查询" style="edgeLabel;html=1;align=center;verticalAlign=middle;resizable=0;points=[];" parent="UkfveuOMZjRMpDvrLKGp-16" vertex="1" connectable="0">
          <mxGeometry x="-0.0194" y="-2" relative="1" as="geometry">
            <mxPoint as="offset" />
          </mxGeometry>
        </mxCell>
        <mxCell id="UkfveuOMZjRMpDvrLKGp-18" value="列表查询" style="text;html=1;align=center;verticalAlign=middle;resizable=0;points=[];autosize=1;strokeColor=none;fillColor=none;shadow=1;dashed=1;" parent="1" vertex="1">
          <mxGeometry x="494" y="314" width="70" height="30" as="geometry" />
        </mxCell>
        <mxCell id="UkfveuOMZjRMpDvrLKGp-19" value="申请进度查询服务" style="rounded=1;whiteSpace=wrap;html=1;fillColor=#66B2FF;" parent="1" vertex="1">
          <mxGeometry x="514" y="344" width="120" height="45" as="geometry" />
        </mxCell>
        <mxCell id="UkfveuOMZjRMpDvrLKGp-20" value="适配车型查询服务" style="rounded=1;whiteSpace=wrap;html=1;fillColor=#66B2FF;" parent="1" vertex="1">
          <mxGeometry x="654" y="344" width="120" height="45" as="geometry" />
        </mxCell>
        <mxCell id="UkfveuOMZjRMpDvrLKGp-21" value="申请详情查询服务" style="rounded=1;whiteSpace=wrap;html=1;fillColor=#66B2FF;" parent="1" vertex="1">
          <mxGeometry x="514" y="404" width="120" height="45" as="geometry" />
        </mxCell>
        <mxCell id="UkfveuOMZjRMpDvrLKGp-22" value="申请驳回查询服务" style="rounded=1;whiteSpace=wrap;html=1;fillColor=#66B2FF;" parent="1" vertex="1">
          <mxGeometry x="654" y="404" width="120" height="45" as="geometry" />
        </mxCell>
        <mxCell id="UkfveuOMZjRMpDvrLKGp-39" style="edgeStyle=orthogonalEdgeStyle;curved=1;rounded=0;orthogonalLoop=1;jettySize=auto;html=1;exitX=0.5;exitY=1;exitDx=0;exitDy=0;exitPerimeter=0;" parent="1" source="UkfveuOMZjRMpDvrLKGp-23" target="UkfveuOMZjRMpDvrLKGp-26" edge="1">
          <mxGeometry relative="1" as="geometry" />
        </mxCell>
        <mxCell id="UkfveuOMZjRMpDvrLKGp-40" value="Text" style="edgeLabel;html=1;align=center;verticalAlign=middle;resizable=0;points=[];" parent="UkfveuOMZjRMpDvrLKGp-39" vertex="1" connectable="0">
          <mxGeometry x="-0.2424" y="-3" relative="1" as="geometry">
            <mxPoint as="offset" />
          </mxGeometry>
        </mxCell>
        <mxCell id="UkfveuOMZjRMpDvrLKGp-23" value="ES" style="shape=cylinder3;whiteSpace=wrap;html=1;boundedLbl=1;backgroundOutline=1;size=15;shadow=1;dashed=1;fillColor=#FFFFFF;" parent="1" vertex="1">
          <mxGeometry x="394" y="544" width="110" height="60" as="geometry" />
        </mxCell>
        <mxCell id="UkfveuOMZjRMpDvrLKGp-42" style="edgeStyle=orthogonalEdgeStyle;curved=1;rounded=0;orthogonalLoop=1;jettySize=auto;html=1;exitX=1;exitY=0.5;exitDx=0;exitDy=0;entryX=0;entryY=0.5;entryDx=0;entryDy=0;" parent="1" source="UkfveuOMZjRMpDvrLKGp-26" target="UkfveuOMZjRMpDvrLKGp-41" edge="1">
          <mxGeometry relative="1" as="geometry" />
        </mxCell>
        <mxCell id="UkfveuOMZjRMpDvrLKGp-46" style="edgeStyle=orthogonalEdgeStyle;curved=1;rounded=0;orthogonalLoop=1;jettySize=auto;html=1;exitX=0.5;exitY=1;exitDx=0;exitDy=0;entryX=0.5;entryY=0;entryDx=0;entryDy=0;entryPerimeter=0;" parent="1" source="UkfveuOMZjRMpDvrLKGp-26" target="UkfveuOMZjRMpDvrLKGp-45" edge="1">
          <mxGeometry relative="1" as="geometry" />
        </mxCell>
        <mxCell id="UkfveuOMZjRMpDvrLKGp-47" value="标品入库" style="edgeLabel;html=1;align=center;verticalAlign=middle;resizable=0;points=[];" parent="UkfveuOMZjRMpDvrLKGp-46" vertex="1" connectable="0">
          <mxGeometry x="0.208" y="-4" relative="1" as="geometry">
            <mxPoint as="offset" />
          </mxGeometry>
        </mxCell>
        <mxCell id="UkfveuOMZjRMpDvrLKGp-26" value="" style="rounded=1;whiteSpace=wrap;html=1;shadow=0;dashed=1;" parent="1" vertex="1">
          <mxGeometry x="169" y="692" width="446" height="160" as="geometry" />
        </mxCell>
        <mxCell id="UkfveuOMZjRMpDvrLKGp-27" value="汽配数据中台" style="text;html=1;align=center;verticalAlign=middle;resizable=0;points=[];autosize=1;strokeColor=none;fillColor=none;shadow=1;dashed=1;" parent="1" vertex="1">
          <mxGeometry x="172" y="692" width="100" height="30" as="geometry" />
        </mxCell>
        <mxCell id="UkfveuOMZjRMpDvrLKGp-28" value="审核列表查询" style="rounded=1;whiteSpace=wrap;html=1;fillColor=#66B2FF;" parent="1" vertex="1">
          <mxGeometry x="185" y="732" width="120" height="45" as="geometry" />
        </mxCell>
        <mxCell id="UkfveuOMZjRMpDvrLKGp-29" value="申请审核" style="rounded=1;whiteSpace=wrap;html=1;fillColor=#66B2FF;" parent="1" vertex="1">
          <mxGeometry x="325" y="732" width="120" height="45" as="geometry" />
        </mxCell>
        <mxCell id="UkfveuOMZjRMpDvrLKGp-30" value="标品重复校验" style="rounded=1;whiteSpace=wrap;html=1;fillColor=#66B2FF;" parent="1" vertex="1">
          <mxGeometry x="465" y="732" width="120" height="45" as="geometry" />
        </mxCell>
        <mxCell id="UkfveuOMZjRMpDvrLKGp-32" value="标品推送主站" style="rounded=1;whiteSpace=wrap;html=1;fillColor=#E6E6E6;" parent="1" vertex="1">
          <mxGeometry x="325" y="792" width="120" height="45" as="geometry" />
        </mxCell>
        <mxCell id="UkfveuOMZjRMpDvrLKGp-33" value="适配车型维护" style="rounded=1;whiteSpace=wrap;html=1;fillColor=#E6E6E6;" parent="1" vertex="1">
          <mxGeometry x="185" y="792" width="120" height="45" as="geometry" />
        </mxCell>
        <mxCell id="UkfveuOMZjRMpDvrLKGp-35" value="标品入库" style="rounded=1;whiteSpace=wrap;html=1;fillColor=#E6E6E6;" parent="1" vertex="1">
          <mxGeometry x="465" y="792" width="120" height="45" as="geometry" />
        </mxCell>
        <mxCell id="UkfveuOMZjRMpDvrLKGp-41" value="" style="rounded=1;whiteSpace=wrap;html=1;shadow=0;dashed=1;" parent="1" vertex="1">
          <mxGeometry x="664" y="688" width="155" height="168" as="geometry" />
        </mxCell>
        <mxCell id="UkfveuOMZjRMpDvrLKGp-43" value="京麦" style="text;html=1;align=center;verticalAlign=middle;resizable=0;points=[];autosize=1;strokeColor=none;fillColor=none;shadow=1;dashed=1;" parent="1" vertex="1">
          <mxGeometry x="689" y="693" width="50" height="30" as="geometry" />
        </mxCell>
        <mxCell id="UkfveuOMZjRMpDvrLKGp-44" value="消息触达" style="rounded=1;whiteSpace=wrap;html=1;fillColor=#E6E6E6;" parent="1" vertex="1">
          <mxGeometry x="685" y="750.5" width="120" height="45" as="geometry" />
        </mxCell>
        <mxCell id="UkfveuOMZjRMpDvrLKGp-50" style="edgeStyle=orthogonalEdgeStyle;curved=1;rounded=0;orthogonalLoop=1;jettySize=auto;html=1;exitX=0;exitY=0.5;exitDx=0;exitDy=0;exitPerimeter=0;entryX=0;entryY=0;entryDx=0;entryDy=37.5;entryPerimeter=0;" parent="1" source="UkfveuOMZjRMpDvrLKGp-45" target="UkfveuOMZjRMpDvrLKGp-23" edge="1">
          <mxGeometry relative="1" as="geometry">
            <Array as="points">
              <mxPoint x="84" y="974" />
              <mxPoint x="84" y="582" />
            </Array>
          </mxGeometry>
        </mxCell>
        <mxCell id="UkfveuOMZjRMpDvrLKGp-51" value="标品同步" style="edgeLabel;html=1;align=center;verticalAlign=middle;resizable=0;points=[];" parent="UkfveuOMZjRMpDvrLKGp-50" vertex="1" connectable="0">
          <mxGeometry x="-0.1754" y="-3" relative="1" as="geometry">
            <mxPoint as="offset" />
          </mxGeometry>
        </mxCell>
        <mxCell id="UkfveuOMZjRMpDvrLKGp-45" value="mysql" style="shape=cylinder3;whiteSpace=wrap;html=1;boundedLbl=1;backgroundOutline=1;size=15;shadow=1;dashed=1;fillColor=#FFFFFF;" parent="1" vertex="1">
          <mxGeometry x="194" y="944" width="125" height="60" as="geometry" />
        </mxCell>
        <mxCell id="v7M33Tu8g_DckwWpfv12-1" value="商家" style="shape=umlActor;verticalLabelPosition=bottom;verticalAlign=top;html=1;outlineConnect=0;" vertex="1" parent="1">
          <mxGeometry x="428" y="4" width="30" height="60" as="geometry" />
        </mxCell>
        <mxCell id="v7M33Tu8g_DckwWpfv12-2" value="" style="endArrow=classic;html=1;rounded=0;" edge="1" parent="1">
          <mxGeometry width="50" height="50" relative="1" as="geometry">
            <mxPoint x="442" y="85" as="sourcePoint" />
            <mxPoint x="442" y="142" as="targetPoint" />
          </mxGeometry>
        </mxCell>
      </root>
    </mxGraphModel>
  </diagram>
</mxfile>
